<?xml version="1.0" encoding="UTF-8"?>
<svg id="_图层_1" data-name="图层 1" xmlns="http://www.w3.org/2000/svg" viewBox="0 0 947.52 761.89">
  <defs>
    <style>
      .cls-1 {
        fill: #caaa68;
      }

      .cls-2 {
        fill: #e5c67b;
      }

      .cls-3 {
        fill: #d3b26d;
      }

      .cls-4 {
        fill: #b3935a;
      }

      .cls-5 {
        fill: #b0915b;
      }

      .cls-6 {
        fill: #bf9a5d;
      }

      .cls-7 {
        fill: #c5a569;
      }

      .cls-8 {
        fill: #dcc583;
      }

      .cls-9 {
        fill: #c6a668;
      }

      .cls-10 {
        fill: #e2c477;
      }

      .cls-11 {
        fill: #d6b973;
      }

      .cls-12 {
        fill: #c9a968;
      }

      .cls-13 {
        fill: #cfb06e;
      }

      .cls-14 {
        fill: #bc9f68;
      }

      .cls-15 {
        fill: #ba995b;
      }

      .cls-16 {
        fill: #ddc17e;
      }

      .cls-17 {
        fill: #c2a267;
      }

      .cls-18 {
        fill: #d1b16a;
      }

      .cls-19 {
        fill: #b6965e;
      }

      .cls-20 {
        fill: #d1b06f;
      }

      .cls-21 {
        fill: #bc9d62;
      }

      .cls-22 {
        fill: #c1a264;
      }

      .cls-23 {
        fill: #ddbc75;
      }

      .cls-24 {
        fill: #e7c778;
      }

      .cls-25 {
        fill: #e5c981;
      }

      .cls-26 {
        fill: #d5b773;
      }

      .cls-27 {
        fill: #ba995c;
      }

      .cls-28 {
        fill: #cfbb8d;
      }

      .cls-29 {
        fill: #b6965c;
      }

      .cls-30 {
        fill: #debe78;
      }

      .cls-31 {
        fill: #c8a867;
      }

      .cls-32 {
        fill: #e1c177;
      }

      .cls-33 {
        fill: #af905b;
      }

      .cls-34 {
        fill: #d3b271;
      }

      .cls-35 {
        fill: #dcbc73;
      }

      .cls-36 {
        fill: #dbbd78;
      }

      .cls-37 {
        fill: #d8b976;
      }

      .cls-38 {
        fill: #be9d60;
      }

      .cls-39 {
        fill: #d7b670;
      }

      .cls-40 {
        fill: #e9cb7d;
      }

      .cls-41 {
        fill: #dbbd79;
      }

      .cls-42 {
        fill: #b8985e;
      }

      .cls-43 {
        fill: #cbab6c;
      }

      .cls-44 {
        fill: #dcbd79;
      }

      .cls-45 {
        fill: #e4c67c;
      }

      .cls-46 {
        fill: #caaa6a;
      }

      .cls-47 {
        fill: #dabc75;
      }

      .cls-48 {
        fill: #eed083;
      }
    </style>
  </defs>
  <path class="cls-37" d="M769.37,758.78c5.23-3.32,3.23-23.16,3.46-30.29h-29.93s-.13,18.6-.13,18.6c-.04,5.2,1.77,9.16,4.57,13.08-7.05.74-13.81.9-21.08.16,2.48-2.86,4.29-5.28,4.29-8.83l-.03-50.68c0-3.27-2.91-4.75-4.36-7.76l21.71.11c-1.59,3.22-4.24,4.62-4.41,7.67-.39,7.02-.28,13.78-.21,21.23,10.1.83,19.66.81,29.71.05.2-7.86,2.28-16.17-.85-22.5l-3.29-6.64,21.05.29c-4.01,4.47-4.09,8.77-4.21,13.87-.39,15.57-1.01,30.83.43,46.35.25,2.72,3.17,4.12,3.24,7.13-7,.19-13.7.4-20.29-.2-.48-.04.24-1.22.34-1.62Z"/>
  <path class="cls-20" d="M635.76,755.37l-12.17-19.83c-2.13-3.47-5.54-5.73-9.93-5.05l.06,19.69c.01,3.79,1.76,6.52,3.98,10.13-7.3.8-13.88.62-21.09-.03,2.84-3.48,4.35-6.62,4.35-10.82v-46.49c0-3.78-2.04-6.25-4.7-9.35,5.93-1.55,11.24-.25,16.84-.16,10.04.16,26.2-2.45,31.78,10,4.44,9.88-.53,20.56-11.75,25.72l11.91,18.75c2.83,4.46,6.01,8.32,10.85,11.49-2.16,2.3-4.91,1.09-7.44,1.4-5.16.64-9.77-.71-12.68-5.45ZM631.11,719.76c3.58-4.71,3.56-13.24-.62-17.24-4.5-4.31-11.54-3.57-16.94-2.94.08,8.56.29,15.51-.51,23.9,5.91,2.3,13.69,2.05,18.07-3.72Z"/>
  <path class="cls-5" d="M107.64,734.56c-8.8-7.88-11.13-5.3-23.12-5.66l.15,24.89c14.53,1.14,21.18,3.05,30.04-9.63,1.18,5.65-.51,10.77-.65,16.61l-46.67-.32c3.21-3.9,4.59-7.16,4.59-11.63v-48.1c0-3.09-2.25-4.49-3.98-7.7l44.8-.09c.21,5.15.99,9.67-.37,14.87-3.53-5.77-8.08-8.74-14.24-8.67l-13.59.16-.06,23.45c5.54-.19,11.74,2.1,15.99-.53l7.2-4.45c.34,5.66.62,11.17-.08,16.79Z"/>
  <path class="cls-19" d="M218.86,734.4c-10.27-7.06-10.58-5.32-23.13-5.43l.17,24.8c14.97,1.16,20.28,3.18,30.02-9.07.85,5.47-.19,10.74-1.13,16.07l-46.52-.39c3.82-3.92,5.07-6.85,5.05-11.54l-.24-48.08c-.01-2.93-2.57-4.45-3.77-7.7l44.13-.19c-.13,5.12.63,9.55-.49,14.81-7.16-11.31-15.4-7.97-27.2-8.36v23.41c12.13-.59,14.4,2.84,22.5-5.3,1.38,5.46.9,11.25.61,16.95Z"/>
  <path class="cls-45" d="M917.48,728.99l-.13,19.72c0,1.43-.16,5.01,1.39,5.25,5.95.92,12.53,1.07,18.31-.51,4.34-1.19,6.27-5.31,10.13-8.05.72,4.96.32,10.38-1.22,15.45l-45.33-.44c2.03-3.5,4.17-6.3,4.17-10.2l-.02-48.04c0-3.15-1.39-5.5-3.61-7.84.76-.99,1.95-1.32,3.15-1.32l40.71.12c1.46,4.49,1.22,9.29.17,14.11-3.78-4.21-7.42-7.79-12.86-7.82l-14.9-.08.07,23.27c5.44.21,10.63.66,15.71-.47,2.72-.6,4.05-3.27,7.06-3.78.91,5.27.84,10.72-.37,15.79-9.39-6.6-10.04-5.1-22.42-5.16Z"/>
  <path class="cls-17" d="M417.4,737.1c-7.61-.25-14.84-.71-22.03.71-2.02,4.05-2.51,8.33-4.11,12.26s-.4,6.64,2.64,10.14c-6.53.75-12.01.54-18.19.02,3.24-3.67,5.65-6.91,7.35-11.26l21.19-54.45c3.04-1.23,5.98-2.37,9.28-2.05l22.08,57.19c1.65,4.27,3.86,7.39,7.58,10.68-8.35.67-15.99.65-24.19-.09,6.9-6.71,1.05-13.67-1.61-23.16ZM415.14,730.96l-8.18-23.83-9.21,23.94c5.79,1.04,11.22.87,17.38-.11Z"/>
  <path class="cls-30" d="M877.02,693.33c5.97-.77,11.31-.65,17.49-.03-3.8,4.6-5.62,8.67-7.64,13.67l-21.48,53.32c-.81,2.01-7.56,2.15-8.36.18l-20.96-55.28c-1.76-4.65-3.51-7.91-7.37-11.97,7.98-.54,15.07-.87,23.32.16-3.82,3.2-4.34,5.91-2.94,9.77l15.04,41.24,15.22-40.19c1.44-3.81,1.21-7.06-2.33-10.87Z"/>
  <path class="cls-43" d="M566.25,738.98c-.3-3.38-2.16-5.58-3.56-9.32l-8.37-22.33-8.56,22.32c-1.22,3.18-1.82,6.54-3.68,10.06l-3.97,13.45c-.83,2.81,1.74,4.68,3.57,7.15-6.39.76-11.97.55-18.75.14,4.04-3.8,6.18-7.55,8.04-12.35l20.88-54.01c2.95-1.4,6.27-2.12,9.44-1.39l23.14,59.15c1.32,3.37,3.43,5.45,5.88,8.27-7.85.89-14.87.86-22.68,0,6.83-6.13-.86-15.43-1.37-21.14Z"/>
  <path class="cls-42" d="M263.11,760.62c-9.09,2.35-18.47.85-27.21-2.32-.55-5.05-.55-9.69-.08-14.93,1.64.23,2.72,1.71,3.51,3.14,4.38,7.86,14.04,11.64,22.12,7.06,3.21-1.82,4-5.9,3.88-9.17-.51-13.66-26.8-13.91-28.94-29.5-.94-6.86.15-13,5.25-17.27,6.75-5.65,15.92-6.47,24.46-4.9l7.94,1.46c1.28,4.72,1.37,9.66.79,14.66-5-1.67-5.48-11.72-18.72-10.37-4.05.41-7.41,2.47-8.68,6.13-3.56,10.28,12.15,15.83,18.95,19.52,7.56,4.1,12.33,10.85,11.57,19.27s-5.81,14.89-14.84,17.22Z"/>
  <path class="cls-33" d="M15,714.72c-3.46,12.19-1.03,32.86,12.16,38.57,7.09,3.07,14.45,2.97,20.32-.39,4.25-2.43,5.57-6.91,9.91-9.73-.57,3.82.86,12.02-2.51,14.56-6.07,4.57-15.35,3.87-22.46,3.79C13.06,761.31.03,746.2,0,727.67s12.66-34.1,32.16-35.81c7.52-.66,15.37.78,23,2.99,1.61,4.94,1.39,9.97.63,15.22-2.98-2.32-3.77-5.31-6.35-7.58-5.65-4.97-13.66-5.45-21.25-3.01-6.17,1.99-11.12,7.91-13.19,15.24Z"/>
  <path class="cls-34" d="M674.79,713.08c-3.93,13.04-2.4,34.82,12.58,40.64,7.63,2.97,15.55,2.21,21.23-2.62,2.85-2.42,3.85-5.83,7.26-8.07.87,5.25-.32,10.31-2,15.35-9.87,3.66-20.67,4.37-30.89,1.96-14.14-3.33-22.06-15.24-23.43-29.09-1.95-19.71,9.96-36.33,30.14-39.18,8.15-1.15,16.98.41,24.92,3.1.81,5.2.49,9.63.36,14.63-6.39-3.48-4.66-11.24-19.13-11.61-9.77-.25-18.09,5.1-21.04,14.88Z"/>
  <path class="cls-14" d="M323,760.09c-7.71,1.25-14.36.57-22.15.22,3.43-4.1,4.71-7.54,4.68-12.28l-.28-48.41c-4.89-1.1-10.51-.65-14.6,2.42-2.45,1.84-2.89,4.89-5.92,6.88-.54-5.35-.33-10.32,0-15.92l54.62-.05c.42,5.53.59,10.55-.09,15.84-2.94-1.93-3.17-4.79-5.47-6.57-4.38-3.38-10.32-3.65-15.56-2.56l.04,49.92c-.38,4.18,1.53,6.82,4.72,10.51Z"/>
  <path class="cls-29" d="M151.42,754.45c14,1.66,14.01-7.87,19.73-9.67l-1.75,15.98-44.54-.36c3.04-3.8,4.7-7.11,4.68-11.56l-.31-49.26-3.92-6.37,21.33-.22c-3.18,4.42-4.33,8.53-4.36,13.74-.06,15.36-.71,30.61.23,46.06.65,2.53,6.58,1.4,8.91,1.67Z"/>
  <path class="cls-7" d="M468.34,754.12c13.52.58,17.03,1.72,25.34-9.97,1.23,5.69.02,11.23-.9,16.75l-43.86-.65c3.83-4.09,4.19-7.97,4.23-12.84.14-15.64,1.07-30.92-.32-46.47-.27-3.08-2.17-4.99-3.54-7.91l21.11.12c-3.5,4.25-4.44,8.41-4.45,13.55l-.13,43.98c0,1.58.85,3.36,2.53,3.43Z"/>
  <path class="cls-6" d="M369.43,760.3c-7.25.84-14,.63-21.8-.04,3.6-3.86,4.46-7.37,4.47-12l.08-43.51c0-4.42-1.32-7.64-4.78-11.41,7.82-.8,14.38-.36,22.27-.31-3.19,3.78-4.66,7.27-4.65,11.94l.12,46.7c0,3.35,2.52,5.12,4.28,8.63Z"/>
  <path class="cls-23" d="M823.05,760.04c-7.64,1.41-14.13.62-21.66.44,2.9-4.34,4-8.44,4.01-13.41l.08-39.75c.01-5.19-.84-9.41-4.72-13.9,7.53-1.05,13.68-.4,21.4-.29-3.17,4.73-3.94,8.79-3.93,13.96l.08,42.39c0,4.14,1.51,6.83,4.75,10.56Z"/>
  <path class="cls-28" d="M562.69,729.66c1.4,3.75,3.26,5.95,3.56,9.32-.65-.95-1.9-1.83-3.46-1.75-7.78.38-19.13-1.9-20.72,2.47,1.87-3.52,2.47-6.88,3.68-10.06-2.61,3.43,15.01,1.5,16.98,1.47.31-.57,0-1.07-.05-1.45Z"/>
  <g>
    <path class="cls-48" d="M559.83,622.1l5.08-.66h150.08s101.3-.39,101.3-.39c10.25-.04,20.04-4.36,30.5-1.85.6.14,2.03-1.31,2.59-1.21.79.14,1.21-1.5.81-2.3-2.27-4.5-17.76.4-22.83-4.23,2.96-1.48.45-20.69.53-21.1l2.86-13.99c.67-3.29-3.49-6.2-4.37-9.72-1.94,1.3-5.3,1.75-6,3.67-1.78,4.88-.18,10.57.27,15.31.13,1.4-2.01,3.32.62,4.94.81.5,1.35,1.8,1.3,2.69-.06,1.09-4.28,1.92-2.68,15.11,1.15.79,2.23.64,2.83,2.08l-45.34.41c-5.15.05-1.52-7.32-2.15-10,2.02,3.07-1.72,8.67,2.45,8.98,9.52.71,18.88.16,28.39-.1,4.34-.12,8.61,1.4,12.99-.43v-41.58c-4.53-1.03-8.72-.8-13.5-.76,2.15-1.37,4.99-.5,7.96-.66,1.83-1.79,2.73-4.11,4.38-6.31-2.96-1.93-5.81-4.23-9.41-4.25l-34.01-.22v-100.34c-1.44.08-1.83.32-1.85-.33-.04-1.29-.37-2.93.8-2.21.88,1.78,1.3.41.85-1.03-.31-1.49.64-2.64-.42-1.85-.2.15-.48.5-.96.95-1.74-4.19-.7-8.75-1.08-13.25-.26-2.97-1.42-5.39-1-8.69s-.61-7.08.08-10.58-.6-6.52-1.07-9.84c-.15-1.05,1.71-2.13,1.88-3.03.23-1.2-2.12-3.7-1.78-4.74,2.71-8.45-1.44-16.21-.05-23.82.63-3.46-.26-6.18-.48-9.69-.24-3.98-.28-8.38-.25-12.51.03-4.24,2.49-8,.78-12.58-.89-2.39,2.02-8.58-1.47-8.71-.88-.03-1.87.94-1.88,2.29l-.12,14.53c-.03,3.1.26,5.46.09,8.67l-1.01,18.91.26,23.61c.02,2.16-1.1,3.53-.82,5.82,1.55,12.79-1.54,25.12-1.59,38.11l-.41,108.35-.38-222.79.23-21.48-.1-61.5c-.01-6.02-3.08-10.75-9.63-10.66l-22.1.32c-3.45.05-6.74-.72-10.37.66l.02,271.31c0,3.52.15,5.97-.83,8.76-1.24-1.01-.86-2.05-1.16-2.77.39.33.67.1.71-.22.04-.38.57-.69.57-1.46v-168.33c-1.7.34-.88,2.02-1.85,3.56-3.54-12.69,6.37-15.42-.37-15.77-.74-.04-.28-1.6-.36-2.11-.1-.63,2.13-.86,2.23-1.6.74-5.41.43-11.01.16-16.57-.1-2.12-2.78-3.32-2.51-5.58.98-.52,1.22.58,2.1,1.27.53-1.46.84-3.43.42-4.53-.29-.27-1.33.47-1.63.24s-.45-1.07-.27-1.67c.17-.55,1.03-.2,2.12.12-.07-4.07.24-8.03-.42-12.27-1.76,1.08-.65,2.99-1.56,4.71-4.08-16.36-1.56-11.95-.07-26.24l1.84,3.62.26-14.78c-.98,0-1.75.32-2.19.08-.75-.4-.3-1.49-.3-2.41,0-1.11.42-1.78,1.97.05,2.32-2.91-1.83-20.57-6.05-18.35s-2.43,8.15-2.73,11.9c-1.01,12.61.47,24.3.3,36.64l-.59,41.62c-.2,14.49-.25,28.36-.4,42.84l-.31,31.04c-.04,3.89-1.16,16.83-1.16,17.92l.05,74.27c-1.85-85.78.27-172.28-1.06-258.97-.42-27.34-6.82-53.63-17.38-78.66-15.46-36.65-39.82-68.66-70.66-93.26,9.61,1.91,8.42,9.7,18.97,5.8-4.41-2.72-3.81-8.91-7.07-11.71,50.9,40.57,83.12,102.88,88.58,168.08,12.15,1.12,18.55-.44,31.29-.34,10.28.08,21.68,6.4,23.45,17.28,1.65,10.19-.33,20.36.75,30.72,3.14,2.15,7.47,1.24,11.24,1.16,8.31-.18,16.15-.44,24.48.01,11.2.61,20.44,9.5,20.44,21.04l-.04,103.04.07,10.3.12,201.34c5.95,2.66,21.25-2.88,21.95,6.17.27,3.44-2.3,6.62-6.48,6.62l-287.43.02ZM699.43,152.96c-1.44-2.32-3.24-3.13-3.75-6.34-1.24-7.86-4.74-16.66-11.1-21.85-3.19-2.6-2.71-4.01-4.08-7.66-3.83-10.23-11.51-18.92-18.07-27.61-1.5-1.98-2.28-5.23-4.32-6.33-3.62-1.95-6.23-3.62-8.67-7.09-2.22-3.16-7.21-4.78-11.36-2.89,7.27,12.36,21.13,25.13,27.8,34.67l11.08,15.84c4.33,6.18,6.52,13.89,11.42,19.71,2.78,3.3,6.45,5.02,6.64,9.86.54,13.61.98,13.68,8.48,26.26,6.48-2.79-1.47-22.36-4.07-26.56ZM713.11,198.96c.7-3.63-4.81-17.15-6.95-10.99-2.31,6.63,2.05,12.23,3.53,18.2,1.34,5.41-1.28,11.97,3.8,16.52,6.41-7.36-2.16-14.42-.38-23.73ZM756.31,229.63c.7-.68.04-2.14-.3-2.73-1.2-2.11-22.92-1.07-25.85-.62-2.24.34-4,3.06-6.89,3.03-2.42-.02-3.21,3.9-3.11,5.3,11.79,3.12,27.03,3.76,36.15-4.98ZM819.23,293.36c-.42-4.48-3.8-7.32-7.95-7.43l-35.48.16-.48,30.35,43.66-.09.25-22.99ZM775.27,554.94l43.9.13v-226.06s-41.88,0-41.88,0c-1.62,0-1.62,1.99-2.05,3.35l.02,174.23c0,3.3.21,5.65.19,8.8l-.18,39.55ZM826.99,544.92c-.56-2.5-.15-13.93-3.33-12.66-1.9.75-1.47,15.82-.75,18.99.4,1.76,3.57-.03,4.13-1.08.77-1.43.4-3.26-.04-5.24Z"/>
    <path class="cls-21" d="M245.49,184.65c-4.86,20.27-7.31,40.39-7.3,61.81l.17,245.89c-4.02,8.8-6.79,17.34-12.26,25.52l.02-235.28-.42-45.49-33.23.2c-5.69.03-8.89,4.56-9.23,10.22l.02,233.83c-1.1-.25-.37-1.59-1.05-2.81-.8.25-.79,1.11-1.35,1.77-1.51-2.89-1.45-6.41-1.5-10.02l-.39-25.04c-.06-3.64.45-7.21-2.1-10.19-1.25,2.3-2.79,3.88-5.07,3.18v115.21c1.32-1.7,4.69-.13,5.63-1.18,1.86-2.09.75-6.45,3.94-7.42.5,2.26-.36,5.28,1.81,5.84v8.49c-2.57-1.41-.82,4.18-2.07,6.6-2.89-.25-1.36-6.16-3.98-8.69-1.25-1.2-2.52,1.26-6.14,1.29-.77,0-1.26-2.43-2.29-2.44l-42.25-.41v-225.57c-1.53.09-2.78.7-3.61-.31-2.25-2.75,1.01-8.36-3.35-6.03-.24.13.98,5.3-2.03,9.96-1.93-1.35.23-3.36-2.33-4.2,1.08,8.28-1.8,18.1.97,25.75,1.86,5.15,1.91,6.7.44,11.94-2.21,7.94.55,17.39-.84,25.75-.58,3.47,3.63,5.34,2.72,7.86-.22.61-1.66-.09-2.13.29-1.51,1.21,1.61,3.13,1.51,4.24-.87,2.1-2.03,5.11-2.03,8.24l.14,120.91-.84,5.03-.32-182.41c-.02-11.79-.49-22.53.07-34.22.49-10.14-1.66-20.19.15-29.75l.44,22.58c-1.99-1.24,10.52-2.94,8.55-3.2,1.52.2,1.08,2.07,2.35,3.35l.14-23.1c-5.81.96-3.12-3.29-8.18-3.09-1.52.06-2.86.35-3.23,2.17,1.08-8.36,7.41-15.51,15.73-17.05-.19.69-1.38.5-1.4,1.36,4.27-.42,8.99-1.66,13.15-.26,3.4,1.15,4.07,5.83,3.23,8.9,2.76,1.21,5.36.58,7.58.36-1.09-2.21-3.32-4.3-2.2-6.46.35-.67,2.15.52,2.7.25.72-.35.7-2.18,1.17-3.02,2.73-1.56,5.95,1.13,8.51-1.65l-29.33-.19c-.18-.62.81-.76,1.48-.75l35.34.29.12-30.73c1.78-8.29,8.68-17.13,17.73-17.25l37.86-.52c1.24-15.87,3.97-31.09,8.01-45.86l1.45-1.62c.97,9.12,2.75.29,4.76,13.83,1.62-2.65,2.24-5.38,4.54-6.69ZM171.12,316.45l-.19-30.44-36.53-.09c-4.59.49-7.56,3.92-7.08,8.52l-.07,22h43.87ZM144.98,328.39c-.2-1.84-1.73-2.36-1.55-2.99,1.28-4.36,6.09-3.05,8.55-4.67,4.35-2.86,8.03-3.07,13.45-3.28l-35.44-.37c.59,1.53,2.05.45,3.07,1.5l-4.35,2.88c-.9.6-.92,2.04-.38,2.69,1.03,1.23,4.64.5,4.43,1.82-.09.52-.33,1.08-.66,2.29l12.89.13ZM171.06,554.9l.02-225.94-43.91.02-.04,226.04,43.92-.12Z"/>
    <path class="cls-4" d="M183.18,559.17c0,15.92.73,31.82.11,48.09-.04,1,.15,2.25.53,2.8.68.97,2.01.79,3.57.79l137.81.03c-6.15.3,17.58,7.01,6.23,5.39-.46-.07-.94.69-1.51.72l-32,1.7c-8.15.43-15.84-.52-24.04,1.02l8.41,1.57-18.51.26c-5.73.08-7.57-5.27-8.88-.08l-156.83.08c-3.17-.55-5.28-2.77-4.99-6.11.76-8.8,13.92-3.94,22.1-5.46-.92-10.36-.3-20.01-.26-30.24l.15-40.32.84-5.03-.14-120.91c0-3.13,1.16-6.14,2.03-8.24.1-1.11-3.02-3.02-1.51-4.24.47-.38,1.91.31,2.13-.29.91-2.52-3.3-4.39-2.72-7.86,1.39-8.36-1.37-17.81.84-25.75,1.46-5.24,1.42-6.8-.44-11.94-2.77-7.65.1-17.47-.97-25.75,2.56.84.4,2.85,2.33,4.2,3.01-4.65,1.79-9.83,2.03-9.96,4.36-2.33,1.1,3.28,3.35,6.03.83,1.02,2.08.4,3.62.31v225.57s42.24.41,42.24.41c1.03,0,1.51,2.45,2.29,2.44,3.62-.04,4.89-2.5,6.14-1.29,2.62,2.52,1.09,8.43,3.98,8.69,1.24-2.43-.5-8.01,2.07-6.6ZM171.19,610.11l-.16-43.17-43.82.06v43.12s43.99-.01,43.99-.01Z"/>
    <path class="cls-40" d="M631.41,56.64c3.26,2.8,2.66,8.99,7.07,11.71-10.54,3.9-9.35-3.9-18.97-5.8-15.43-12.3-32.57-22.1-50.98-30.22-46.23-20.39-98.2-25.97-147.27-14.67,2.15-8.24,11.52-5.66,16.14-9.02-4.91-3.08-9.75-.96-14.97-.85.68-1.19,2.14-1.47,2.91-2.51-.93-.52-1.6-.16-2.2-.17,41.22-8.05,84.99-7.01,125.56,6.13,30.44,9.86,58.82,24.86,82.7,45.4Z"/>
    <path class="cls-22" d="M502.56,622.97c-.19.71-.2,2.98.58,3.28,2.87.99,6.67,1,9.74,1.15l-.51,1.82c-20.28,24.38-65.52,16.22-76.47,2.23l-7.33-9.36h-147.02s-178.35.12-178.35.12c-2.37,0-3.48-.39-5.12-.68l156.83-.08c1.31-5.18,3.15.16,8.88.08l18.51-.26-8.41-1.57c8.21-1.54,15.9-.58,24.04-1.02l32-1.7c.58-.03,1.06-.78,1.51-.72,11.35,1.62-12.39-5.09-6.23-5.39l-137.81-.03c-1.56,0-2.89.18-3.57-.79l248.85.13c8.01,0,3.95,9.07,17.55,16.9,15.02,8.65,39.19,7.43,52.35-4.12Z"/>
    <path class="cls-12" d="M360.19,40.42c-56.51,31.34-96.61,82.32-114.7,144.23-2.31,1.31-2.93,4.04-4.54,6.69-2.01-13.54-3.8-4.7-4.76-13.83l-1.45,1.62c16.71-61.11,58.72-114.02,113.4-145.68,1.06,0,1.07.96.54,1.41l-2.5,2.13c2.1,1.23,9.78-6.57,10.85-2.82.66,2.31,1.09,4.35,3.89,5-.13.57-.5.87-.72,1.24Z"/>
    <path class="cls-26" d="M714.99,621.44h-150.08s-5.08.65-5.08.65c-9.78,1.27-19.97-1.11-29.83-.51-.21-.72-1.3-1.45-1.14-2.03.18-.66,2.04-1.15,2.73-.97,4.14,1.13,7.6-.66,11.31-1.33,3.42-.62,7.48,1.11,10.15-2.3-2.11-3.75-13.26,2.38-16.26-3.91l185.99-.3c.69.56-.01,1.47.31,2.08,3.75-.32,7.05,1.09,9.48,3.49-2.92,1.7-6.03.54-9.05,1.12-4.34.84-8.19,1.58-13,1.44l4.49,2.56Z"/>
    <path class="cls-39" d="M421.26,17.66c-21.11,4.86-42.08,12.23-61.06,22.76.22-.37.59-.67.72-1.24-2.8-.65-3.23-2.69-3.89-5-1.07-3.75-8.74,4.05-10.85,2.82l2.5-2.13c.53-.45.52-1.4-.54-1.41,23.58-13.65,48.23-23.11,75-28.34.6,0,1.26-.35,2.2.17-.77,1.04-2.24,1.31-2.91,2.51,5.22-.11,10.06-2.22,14.97.85-4.62,3.36-13.99.78-16.14,9.02Z"/>
    <path class="cls-22" d="M527.31,610.59c3.14.13,6.32.48,9.47.47,3.01,6.28,14.15.16,16.26,3.91-2.67,3.41-6.73,1.68-10.15,2.3-3.71.67-7.16,2.45-11.31,1.33-.68-.19-2.55.31-2.73.97-.16.59.93,1.32,1.14,2.03l-6.19.38c.31-4.82-7.7-.88-10.91-2.31,7.5,3.33-13.42-7.28-5.3-3.92,3.55-4.61-1.46-6.06,19.72-5.15Z"/>
    <path class="cls-4" d="M114.99,293.01c0-.42.02-.88.07-1.29.36-1.82,1.7-2.11,3.23-2.17,5.07-.2,2.37,4.04,8.18,3.09l-.14,23.1c-1.27-1.27-.83-3.15-2.35-3.35,1.96.26-10.54,1.96-8.55,3.2l-.44-22.58Z"/>
    <path class="cls-26" d="M523.81,621.97c-7.61.47-4.82-.71-11.44,7.24l.51-1.82c-3.08-.15-6.87-.16-9.74-1.15-.78-.3-.77-2.57-.58-3.28,1.06-2.23,3.46-5.19,5.03-7.22-8.11-3.36,12.8,7.25,5.3,3.92,3.21,1.43,11.22-2.51,10.91,2.31Z"/>
    <path class="cls-4" d="M134.2,273.95l29.33.19c-2.56,2.79-5.78.09-8.51,1.65-.47.85-.46,2.67-1.17,3.02-.55.27-2.35-.93-2.7-.25-1.12,2.16,1.12,4.25,2.2,6.46-2.22.22-4.83.85-7.58-.36.83-3.07.17-7.75-3.23-8.9-4.15-1.4-8.87-.16-13.15.26.02-.86,1.2-.67,1.4-1.36,1.18-.22,2.13-.72,3.41-.71Z"/>
    <path class="cls-2" d="M805.57,566.97l-27.93.25c-2.55.02-1.77,3.7-1.86,5.32-.5,9.61-.7,18.59-.54,28.32.62,2.68-3,10.05,2.15,10l45.34-.41c-.6-1.44-1.68-1.29-2.83-2.08-1.6-13.19,2.62-14.02,2.68-15.11.05-.89-.49-2.19-1.3-2.69-2.63-1.63-.49-3.54-.62-4.94-.45-4.73-2.05-10.43-.27-15.31.7-1.92,4.07-2.37,6-3.67.87,3.52,5.04,6.43,4.37,9.72l-2.86,13.99c-.08.4,2.43,19.61-.53,21.1,5.08,4.64,20.57-.27,22.83,4.23.4.8-.02,2.44-.81,2.3-.56-.1-1.99,1.36-2.59,1.21-10.46-2.51-20.25,1.81-30.5,1.85l-101.3.4-4.49-2.56c4.81.14,8.66-.6,13-1.44,3.02-.59,6.13.58,9.05-1.12-2.43-2.4-5.73-3.81-9.48-3.49-.32-.61.38-1.52-.31-2.08l-185.99.3c-3.14,0-6.33-.34-9.47-.47l235.57-.59-.13-11.85.24-44.59.41-108.35c.05-12.99,3.14-25.32,1.59-38.11-.28-2.29.84-3.65.82-5.82l-.26-23.61,1.01-18.91c.17-3.21-.12-5.57-.09-8.67l.12-14.53c.01-1.35,1-2.32,1.88-2.29,3.49.13.58,6.32,1.47,8.71,1.71,4.59-.75,8.35-.78,12.58-.03,4.14,0,8.53.25,12.51.21,3.51,1.11,6.23.48,9.69-1.39,7.61,2.77,15.37.05,23.82-.33,1.04,2.01,3.54,1.78,4.74-.17.9-2.03,1.98-1.88,3.03.47,3.32,1.76,6.36,1.07,9.84s.36,7.15-.08,10.58.74,5.71,1,8.69c.39,4.5-.66,9.06,1.08,13.25.48-.45.76-.8.96-.95,1.06-.79.11.36.42,1.85.45,1.44.03,2.82-.85,1.03-1.17-.72-.84.92-.8,2.21.02.65.41.41,1.85.33v100.34s34.01.22,34.01.22c3.61.02,6.45,2.32,9.41,4.25-1.65,2.2-2.55,4.51-4.38,6.31-2.96.16-5.81-.71-7.96.66Z"/>
    <path class="cls-40" d="M718.67,515.41c-2.9-7.08-8.87-14.29-10.05-21.97l-.05-74.27c0-1.09,1.12-14.04,1.16-17.92l.31-31.04c.15-14.48.19-28.35.4-42.84l.59-41.62c.17-12.34-1.31-24.03-.3-36.64.3-3.75-1.43-9.72,2.73-11.9s8.37,15.44,6.05,18.35c-1.55-1.83-1.97-1.16-1.97-.05,0,.92-.45,2.01.3,2.41.44.24,1.21-.08,2.19-.08l-.26,14.78-1.84-3.62c-1.49,14.29-4.01,9.88.07,26.24.91-1.72-.2-3.63,1.56-4.71.65,4.23.34,8.2.42,12.27-1.1-.32-1.96-.67-2.12-.12-.18.6-.04,1.43.27,1.67s1.34-.51,1.63-.24c.43,1.1.12,3.07-.42,4.53-.87-.7-1.11-1.79-2.1-1.27-.27,2.27,2.41,3.47,2.51,5.58.27,5.57.58,11.17-.16,16.57-.1.73-2.33.96-2.23,1.6.08.52-.38,2.07.36,2.11,6.74.35-3.17,3.08.37,15.77.97-1.54.15-3.23,1.84-3.56v168.33c.01.76-.52,1.08-.56,1.46-.03.32-.31.54-.71.22Z"/>
    <path class="cls-40" d="M699.43,152.96c2.6,4.2,10.55,23.77,4.07,26.56-7.5-12.58-7.93-12.65-8.48-26.26-.19-4.84-3.86-6.57-6.64-9.86-4.9-5.82-7.09-13.52-11.42-19.71l-11.08-15.84c-6.67-9.54-20.54-22.31-27.8-34.67,4.15-1.88,9.14-.26,11.36,2.89,2.44,3.47,5.05,5.14,8.67,7.09,2.04,1.1,2.82,4.35,4.32,6.33,6.57,8.69,14.25,17.38,18.07,27.61,1.37,3.65.89,5.06,4.08,7.66,6.36,5.19,9.86,13.99,11.1,21.85.51,3.22,2.31,4.02,3.75,6.34Z"/>
    <path class="cls-40" d="M756.31,229.63c-9.12,8.74-24.35,8.1-36.15,4.98-.11-1.4.69-5.32,3.11-5.3,2.89.03,4.65-2.69,6.89-3.03,2.93-.44,24.65-1.49,25.85.62.34.59,1.01,2.06.3,2.73Z"/>
    <path class="cls-40" d="M713.11,198.96c-1.78,9.31,6.79,16.37.38,23.73-5.07-4.55-2.45-11.11-3.8-16.52-1.48-5.97-5.84-11.57-3.53-18.2,2.15-6.16,7.65,7.36,6.95,10.99Z"/>
    <path class="cls-2" d="M826.99,544.92c.45,1.98.81,3.81.04,5.24-.56,1.05-3.73,2.84-4.13,1.08-.72-3.16-1.15-18.23.75-18.99,3.18-1.26,2.77,10.17,3.33,12.66Z"/>
    <path class="cls-4" d="M183.27,481.35l-.08,69.32c-2.16-.56-1.31-3.58-1.81-5.84-3.19.97-2.09,5.33-3.94,7.42-.94,1.06-4.3-.51-5.64,1.18v-115.21c2.29.7,3.82-.88,5.08-3.18,2.55,2.98,2.04,6.55,2.1,10.19l.39,25.04c.06,3.6-.01,7.13,1.5,10.02.56-.65.55-1.52,1.35-1.77.68,1.23-.05,2.56,1.05,2.81Z"/>
    <path class="cls-4" d="M144.98,328.39l-12.89-.13c.33-1.21.57-1.77.66-2.29.22-1.32-3.39-.58-4.43-1.82-.54-.64-.52-2.09.38-2.69l4.35-2.88c-1.02-1.05-2.48.03-3.07-1.5l35.44.37c-5.42.22-9.1.42-13.45,3.28-2.47,1.62-7.27.31-8.55,4.67-.18.62,1.34,1.15,1.55,2.99Z"/>
    <path class="cls-31" d="M464.56,575.61c.58,1.08.64,3.34,2.61,3.05.37-2.86.84-8.59,4.53-8.93s5.71,5.31,4.88,8.29c-.44,1.59.6,2.92,1.31,3.37,3,1.93,1.2-1.68,8.61-.55,2.88.44,5.61-.24,8.28,2.33,1.35-2.09.82-3.84,2.29-5.53,2.72-.52,6.37,2.28,5.88,5.07-.31,1.76-2.11,2.99-1.81,4.63-3.31,2.88-6.69,6.25-9.49,10.37l20.17-10.94c.33.05.92-.13,1.23.02,3.02,1.45,6.45,1.41,10.01,2.1l10.59,2.06c-.19,1.09-.97,1.2-1.37,1.68-14.23,3.78-27.26,10.7-39.68,19.13l-38.78-.15c-23.1-16.49-46.55-22.17-73.16-25.5,2.96.14,6.85.7,9.97.27,4.5-.61,8.39-3.33,13.59-2.38,1.51.28,3.68-.32,4.69-1.2-2.13-2.58-6.02.32-9.19-2.99-.59-.61.15-1.67.16-2.83,9.24,2,18.55,3.64,27.51,6.97,9.05,3.37,17.31,7.83,26.56,13.03-5.68-9.1-14.42-14.46-22.19-19.93-26.17-18.4-65.49-26.48-97.77-24.32l-23.39,1.56c9.23-1.36,18.47-2.74,28.33-2.23,11.94.61,10.97-3.98,11.7-4.55l7.43-5.79c-2.29-.14-5.27.68-6.38-1.12,21.69.84,43.26,5.3,63.68,13.7,12.3,5.07,22.8,12.23,33.51,19.51-11.11-18.31-37.06-35.71-55.39-42.18-2.86-1.01-5.66-2.89-8.6-3.71,9.7-.19,5.32-3.73,14.33-7.13,25.72,10.1,52.14,30.28,65.36,54.84Z"/>
    <path class="cls-15" d="M244.75,537.86c-3.05,6.14-6.57,11.98-8.86,19.36l25.9-6.5c.89-.22,1.84-.54,2.74-.71,28.76-5.53,57.75-10.58,87.14-9.43,1.11,1.8,4.09.98,6.38,1.12l-7.43,5.79c-.74.57.24,5.16-11.7,4.55-9.86-.5-19.11.87-28.33,2.23-28.46,4.19-56.63,9.72-84.18,19.01-2.97,1-5.32,1.72-7.57-.24-1.98-1.74-2.55-5.15-1.22-7.84l19.22-38.92,37.28-74.95c3.6-7.24,10.03-11.55,18.25-8.96-3.69,15.37-2.87,5.3-8.99,17.64l-38.63,77.84Z"/>
    <path class="cls-13" d="M516.08,438.08c0,3.11,13.74-2.3,9.52,4.65l-3.27,5.38c-17.54,11.26-32.78,25.59-42.49,44.56-1.26,11.08-.14,21.43-.19,32.53l-.24,50.6c0,.59.41,1.54.76,1.54s1.07-.51,1.39-1.04c7.74-13.19,17.55-24.96,29.46-34.12-1.09,1.7-1.47,2.91-3.48,4.51-1.86,1.48-.69,6.53.64,8.02,2.63.4,4.37-.5,6.38-.5-5.04,6.69-12.63,10.96-16.31,19.92,14.11-11.15,29.41-19.25,45.99-24.18,4.12,1.65,14.96-.87,14.27,2.39-.12.57-1.45.98-1.74,1.78-.62,1.68.62,3.76-1.15,4.46-14.21,4.03-28.05,10.15-40.31,18.23-5.01,2.89-9.75,6.69-14.17,10.54-.3-1.64,1.5-2.87,1.81-4.63.49-2.78-3.16-5.59-5.88-5.07-1.47,1.69-.94,3.44-2.29,5.53-2.66-2.57-5.4-1.89-8.28-2.33-7.41-1.13-5.61,2.48-8.61.55-.71-.45-1.75-1.78-1.31-3.37.83-2.98-1.16-8.63-4.88-8.29s-4.16,6.06-4.53,8.93c-1.98.29-2.03-1.97-2.61-3.05.58.3.89.94,1.8,1.23.64-5.07.8-9.7.78-14.91l-.28-68.26c-1.36-3.61-3.8-8.64-6.01-11.51.33,1.93,8.74-.26,9.3-.96.74-.91.72-2.8,1.33-4.11.46.75.87,1.65,2.27,2.22,10.3-17.26,25.3-31.31,42.33-41.23ZM537.02,559.11c2.4-.83,5.92,1.69,8.17-.87-4.55-6.57-14.92.09-18.17,4.63,4.09,1.17,6.75-2.64,9.99-3.76Z"/>
    <path class="cls-32" d="M641.27,554.99c5.07.68,3.22-2.43,11.79-5.06,2.83-.87,5.4-1.53,7.36-3.58,3.26.51,6.64.73,9.87,1.48l40.67,9.5c-3.11-7.96-6.79-14.67-10.2-21.52l-26.18-52.47c-4.83-9.68-9.03-19.15-14.88-28.37-2.56-4.02-6.25-7.16-5.24-12.92,7.44-1.71,14.13,1.62,17.6,8.58l33.12,66.48,15.84,31.75c3.85,7.73,12.15,20.1,6.1,24.75-2.07,1.59-4.25.94-6.87.03-25.92-9.07-52.46-14.36-78.98-18.65Z"/>
    <path class="cls-27" d="M399.86,576.97c0,1.16-.74,2.21-.16,2.83,3.18,3.31,7.06.42,9.19,2.99-1.01.89-3.18,1.48-4.69,1.2-5.2-.95-9.09,1.77-13.59,2.38-3.12.43-7.01-.13-9.97-.27-20.74-.99-41.09.54-62.1,3.74-33.18,5.06-65.78,10-99.16,12.46-4.07.3-6.95-1.94-7.29-5.33s1.81-6.3,5.86-6.63c24.42-2,48.28-4.84,72.66-8.64,20.1-3.13,39.38-5.93,59.6-7.68,17.09-1.48,33.43-.57,49.64,2.94Z"/>
    <path class="cls-18" d="M375.77,198.04l-9.47-31.26c-.62-4.33-3.11-6.9-7.02-8.13l-30.78-9.71,33.75-10.2c3.06-2.06,4.05-5.67,5.07-9.16l8.68-29.44c3.42,11.19,5.2,22.27,9.8,32.78.6,4.08,3.67,5.88,7.29,6.97l29.77,9.02-29.66,9.39c-3.4.93-6.09,3.06-7.02,6.52-4.54,10.55-6.52,21.44-10.42,33.22Z"/>
    <path class="cls-24" d="M568.93,141.22c21.95,18.82,45.28,1.47,42.62,6.09-8.49,14.76-24.01,21.89-40.99,19.64-15.38-2.04-28.22-13.38-33.06-29.14-6.84-22.28,5.92-47.54,29.91-52.41-16.45,16.41-15.61,41.13,1.52,55.82Z"/>
    <path class="cls-38" d="M314.81,455.2l-21.86,48.92c36.87-.75,73.84,2,106.26,16.65-9.01,3.4-4.63,6.94-14.33,7.13l-21.89-6.11c-19.05-5.32-39.21-6.79-59.41-5.76l-29.12,1.48c.32-3.05,1.57-5.44,2.8-8.13l25.53-55.74c1.46.86,2.94-.36,4.38-1.44,8.66,4.92,7.24-.87,7.64,3Z"/>
    <path class="cls-44" d="M612.24,587.54c2.57.24,6.43.11,8.86-.25-1.65.24,8.74-4.41,9.88-3.44.54.46,1.47-1.49.78-1.61-3.6-.59-7.17-1.75-10.8-2.04-10.84-.85-20.82-3.54-31.43-5.75-5.59-1.16-29.37.27-34.71.98,29.26-5.87,72.85,1.67,104.08,6.63,23.7,3.76,46.64,6.85,70.32,8.05,3.47.18,5.98,4.4,5.58,6.66-.51,2.85-3,5.63-6.39,5.53-14.35-.41-28.16-2.15-42.49-4.21l-55.11-7.93c-6.52-.94-12.7-1.11-18.57-2.64Z"/>
    <path class="cls-11" d="M656.35,545.59c1.46.05,2.69.53,4.08.75-1.96,2.05-4.54,2.71-7.36,3.58-8.57,2.64-6.72,5.74-11.79,5.06-27.81-3.75-58.47-4.13-85.66,3.58,1.78-.7.53-2.78,1.15-4.46.29-.79,1.62-1.21,1.74-1.78.69-3.26-10.15-.74-14.27-2.39,14.45-4.3,29.44-8.14,44.68-9.1,9.96-.63,20.1.03,30.42.15,14.18.16,30.55,4.39,37.01,4.61Z"/>
    <path class="cls-3" d="M612.24,587.54c-31.61-2.97-49.32-3.05-79.97,5.08.41-.48,1.18-.58,1.37-1.68l-10.59-2.06c-3.56-.69-7-.65-10.01-2.1,13.19-5.53,27.34-9.41,41.78-11.34,5.34-.71,29.12-2.14,34.71-.98,10.61,2.2,20.58,4.89,31.43,5.75,3.62.29,7.2,1.45,10.8,2.04.69.11-.24,2.07-.78,1.61-1.14-.98-11.52,3.68-9.88,3.44-2.43.36-6.29.49-8.86.25Z"/>
    <path class="cls-47" d="M602.15,379.22c-7.83-19.9-1.37-13.12-20.28-21.22,4.17-2.89,10.85-2.15,14.45-5.82s2.96-10.38,5.99-14.79c8.48,20-.32,12.16,19.84,20.52-19.84,9.51-11.09.01-20.01,21.31Z"/>
    <path class="cls-16" d="M462.86,108.29c-2.73-4.43-2.4-11.27-6.09-15.08-3.34-3.45-9.49-2.31-13.32-5.54,5.86-4.26,12.86-1.47,15.49-8.83,1.3-3.64,1.88-7.39,3.98-11.12,7.96,20.84,1.15,11.68,19.53,19.85-19.72,8.07-11.12,1.14-19.59,20.72Z"/>
    <path class="cls-1" d="M305.77,247.38c-1.5-6.31.81-11.96,5.93-14.26s11.08-.77,14.7,3.94c4.37,5.67,2.3,13.9-3.54,17.11-6.64,3.65-15.25.98-17.1-6.79Z"/>
    <path class="cls-10" d="M647.66,275.07c5.81-1.23,10.64,2.49,11.75,7.42,1.22,5.39-2.31,10.44-7.5,11.61s-10.3-1.89-11.68-6.69c-1.5-5.23,1.61-11.11,7.43-12.34Z"/>
    <path class="cls-8" d="M487.66,147.05c4.04-1.5,8.24.31,9.45,3.76s-.17,8.13-3.78,9.45-7.67.26-9.16-3.39c-1.39-3.41-.85-8.21,3.48-9.83Z"/>
    <path class="cls-36" d="M530.95,542.18c0-2.05-1.8-5.09-4.13-5.2-2.72-.12-5.28.62-7.32-1.02,27.96-20.3,71.32-31.4,105.75-31.73l28.34-.27-30-65.77c-2.38-5.21-5.24-9.55-6.88-14.99-.56-1.87-2.14-3.17-4.42-2.94-32.36,3.18-62.45,11.04-89.95,27.85l3.27-5.38c4.22-6.95-9.52-1.54-9.52-4.65,6.01-3.5,11.68-7.52,18.29-9.82.3,2.58-1.41,4.57-3.18,7.29,4.46,1.65,8.53.21,12.68-1.35,2.26-.85,5.44-.16,7.22-2.06,1.97-2.1,3.24-4.68,6.28-5.88-1.69-4.72-8.78-.26-13.86-2.2,17.26-7.37,35.79-11.26,54.71-14.08,8.29-1.24,15.99-2.41,24.49-1.27l21.64,45.61,27.39,60.38c.41.9.16,2.33-.03,2.91s-1.71.53-2.73.41c-32.89-3.96-66.03-2.33-97.78,7.07-14.49,4.29-28.56,8.52-40.26,17.1Z"/>
    <path class="cls-9" d="M471.48,477.09c-.6,1.32-.59,3.2-1.33,4.11-.56.7-8.97,2.89-9.3.96-5.64-7.31-11.18-14.53-18.51-20.72-30.83-26.07-70.93-38.54-111.45-40.83l-16.08,34.58c-.4-3.87,1.02,1.92-7.64-3-1.45,1.08-2.92,2.3-4.38,1.44l18.74-41.44c1.25-2.77,2.71-4.04,6.07-4.05,9.84-.04,19.19,1.52,29.04,3.09,42.85,6.82,91.81,27.86,114.85,65.85Z"/>
    <path class="cls-31" d="M530.95,542.18l-16.38,12.02c-2.01,0-3.75.9-6.38.5-1.33-1.5-2.5-6.54-.64-8.02,2.01-1.61,2.39-2.82,3.48-4.51,1.9-2.94,5.76-4.24,8.46-6.2,2.05,1.63,4.6.89,7.32,1.02,2.34.11,4.13,3.15,4.13,5.2Z"/>
    <path class="cls-31" d="M537.02,559.11c-3.25,1.12-5.9,4.93-9.99,3.76,3.25-4.54,13.61-11.2,18.17-4.63-2.25,2.55-5.77.04-8.17.87Z"/>
    <path class="cls-13" d="M543.52,424.05c5.09,1.94,12.17-2.52,13.86,2.2-3.03,1.2-4.31,3.79-6.28,5.88-1.78,1.9-4.97,1.21-7.22,2.06-4.14,1.56-8.22,3.01-12.68,1.35,1.77-2.72,3.48-4.71,3.18-7.29,2.91-1.01,6.2-2.95,9.14-4.21Z"/>
    <g>
      <path class="cls-46" d="M431.62,219.51c-10.83,6.44-20.28,16.31-27.1,27.1-15.4,24.36-16.18,54.62-3.59,80.6-3.94,1.7-8.48,2.07-12.45,1.54-3.97-8.49-5.91-16.75-7.72-26.03-11.99,7.68-39.04,22.65-41.7,36.5-.48,2.48,4.42,4.14,6.48,4.37,14.15,1.57,27.58.22,41.68-2.37,22.28-4.11,43.75-10,64.95-16.99,2.75,1.7,6.25,1.3,9.23,2.34,2.24.78,1.28,5.21.71,6.89l-45.87,14.03c26.96,27.06,67.21,31.99,99.7,12.12,7.99,2.12,5.83-2.74,12.73,5.5-31.05,24.24-76.02,25.04-108.58,1.74-6.59-4.71-11.9-10.37-17.56-16.38-18.46,4.35-36.8,6.69-55.7,5.4-9.9-.68-22.32-5.92-20.51-18.2.77-5.2,3.07-9.93,6.61-13.89,9.51-10.68,20.86-18.93,33.13-26.18l13.94-8.23c-.11-26.07,11.05-50.3,29.18-68.13,6.72-6.61,13.75-10.02,21.16-14.33.66,1.99-2.41,2.58-2.83,4.68,2.05,1.88,4.62,3.56,5.31,6.27.16.63-1.02,1.3-1.16,1.65Z"/>
      <path class="cls-41" d="M599.75,263.85c-2.32,1.81-4.22,4.32-7.06,6.1l-26.32,16.56c.95,14.74-2.83,28.68-8.3,42.09-6.34,15.55-16.94,26.77-29.4,36.5-6.9-8.24-4.74-3.38-12.73-5.5,22.34-13.66,36.57-38.7,37.63-65.55-30.06,15.48-59.69,28.93-91.46,39.39.56-1.68,1.53-6.1-.71-6.89-2.98-1.04-6.48-.65-9.23-2.34,34.03-11.23,66.54-25.46,98.38-42.55,13.95-7.49,26.6-15.61,39.08-24.69,2.37-1.72,7.13-.8,9.22.54,1.03,2.53-.33,4.45.9,6.32Z"/>
      <path class="cls-35" d="M545.66,225.13c1.62.22,3.82-1.06,5.55-.47,8.55,2.91,10.82-1.53,12.4,1.06s-5.87,7.07-8.04,9.41c-1.49.26-3.22.63-4.5,1.69,4.99,8.18,8.98,15.98,11.46,25.23-3,2.77-6.78,4.96-10.71,5.49-8.33-26.66-28.21-47.47-54.49-55.62-22.44-6.96-45.82-4.24-65.71,7.59.14-.35,1.32-1.03,1.16-1.65-.69-2.71-3.26-4.39-5.31-6.27.42-2.1,3.49-2.69,2.83-4.68,9.75-5.68,19.89-8.98,31.87-10.35,29.1-3.32,57.78,6.3,78.07,27.78,1.45,1.53,3.85.58,5.4.79Z"/>
      <path class="cls-25" d="M599.75,263.85c-1.22-1.87.14-3.79-.9-6.32-2.09-1.34-6.85-2.27-9.22-.54,3.55-3.56,26.43-20.04,14.88-24.9-12.23-5.14-35.94.79-48.94,3.04,2.16-2.34,9.56-6.91,8.04-9.41s-3.84,1.86-12.4-1.06c-1.73-.59-3.93.69-5.55.47,14.98-3.96,66.21-15.77,73.8,4.75,4.85,13.09-10.29,26.62-19.72,33.97Z"/>
    </g>
  </g>
</svg>